<svg width="279" height="170" viewBox="0 0 279 170" fill="none" xmlns="http://www.w3.org/2000/svg">
<g clip-path="url(#clip0)">
<path d="M141.139 129.07C183.36 129.603 222.199 118.644 247.734 102.995C272.505 87.814 279.987 68.261 270.64 49.705C261.364 31.289 235.938 15.481 199.448 7.13401C162.58 -1.29999 119.708 -1.28099 82.301 6.62201C43.768 14.762 10.903 29.442 2.52002 48.737C-5.65698 67.559 15.724 85.416 41.564 100.391C67.274 115.291 100.081 128.552 141.139 129.07Z" stroke="#2D282F" stroke-width="1.5" stroke-miterlimit="10"/>
<path d="M142.928 137.848C185.604 138.372 224.861 127.601 250.671 112.22C275.709 97.299 283.271 78.082 273.824 59.844C264.448 41.744 238.748 26.208 201.865 18.004C164.6 9.71499 121.267 9.73298 83.4559 17.501C44.5079 25.502 11.2879 39.929 2.81495 58.894C-5.45005 77.393 16.1609 94.944 42.2799 109.662C68.2669 124.305 101.428 137.339 142.928 137.848Z" stroke="#2D282F" stroke-width="1.5" stroke-miterlimit="10"/>
<path d="M149.476 137.321C158.662 166.566 187.124 164.418 198.007 163.883C170.998 181.676 128.853 143.296 126.886 136.505" stroke="#2D282F" stroke-width="1.5" stroke-miterlimit="10" stroke-linecap="round" stroke-linejoin="round"/>
</g>
<defs>
<clipPath id="clip0">
<rect width="278.5" height="169.296" fill="white"/>
</clipPath>
</defs>
</svg>
