<svg width="233" height="87" viewBox="0 0 233 87" fill="none" xmlns="http://www.w3.org/2000/svg">
<path d="M114.478 80.421C79.252 80.753 46.848 73.928 25.543 64.181C4.87603 54.726 -1.36597 42.548 6.43203 30.99C14.171 19.52 35.385 9.67499 65.83 4.47599C96.59 -0.777006 132.358 -0.765006 163.569 4.15699C195.718 9.22699 223.138 18.37 230.132 30.388C236.954 42.111 219.116 53.233 197.556 62.56C176.106 71.839 148.734 80.098 114.478 80.421Z" stroke="#DC2228" stroke-miterlimit="10"/>
<path d="M112.985 85.889C77.379 86.215 44.626 79.507 23.092 69.927C2.20195 60.634 -4.10705 48.665 3.77495 37.306C11.598 26.033 33.0399 16.356 63.813 11.247C94.9039 6.08396 131.058 6.09596 162.605 10.934C195.1 15.917 222.816 24.903 229.885 36.714C236.781 48.235 218.75 59.167 196.958 68.334C175.277 77.454 147.61 85.571 112.985 85.889Z" stroke="#DC2228" stroke-miterlimit="10"/>
</svg>
