<svg width="266" height="63" viewBox="0 0 266 63" fill="none" xmlns="http://www.w3.org/2000/svg">
<g clip-path="url(#clip0)">
<path d="M10.3212 45.1288C10.5359 44.9114 10.2686 44.6024 10.5577 43.8525C10.8441 43.1096 11.2742 42.9776 11.2668 42.6352C11.25 41.8596 9.0167 41.323 8.7139 41.2525C6.21288 40.6693 4.18431 40.1962 2.33182 41.5008C0.908854 42.5027 -0.291571 44.4701 0.062666 46.571C0.455895 48.9035 2.53818 50.0566 2.65101 50.1167C5.99718 51.9002 10.8565 49.1357 11.3273 48.868C11.4991 48.7703 12.0976 48.4173 12.9687 48.0604C13.7904 47.7236 14.4939 47.5313 14.9543 47.4222C19.5281 47.4459 24.1021 47.4695 28.6758 47.4931C30.2004 47.0559 31.725 46.6185 33.2496 46.1813C34.6954 46.6055 36.1412 47.0296 37.5867 47.4537C40.8921 47.4552 44.1976 47.4564 47.5029 47.4577C48.5181 47.0927 49.5335 46.7274 50.5488 46.3624C52.3936 46.7865 54.2384 47.2109 56.0832 47.635C121.417 47.635 186.751 47.635 252.084 47.635C252.794 47.5259 253.54 47.3865 254.318 47.2096C255.662 46.9037 256.882 46.5343 257.97 46.1459C256.894 45.7076 255.586 45.285 254.07 45.0112C253.394 44.8892 252.753 44.8104 252.155 44.7629C186.762 44.7511 121.37 44.7393 55.977 44.7275C54.1805 45.1647 52.384 45.6021 50.5878 46.0393C49.4537 45.6394 48.3194 45.2398 47.1854 44.8399C44.0412 44.8142 40.8968 44.7885 37.7527 44.7629C36.2399 45.1058 34.7271 45.4484 33.2144 45.7912C31.7371 45.4602 30.2598 45.1294 28.7824 44.7984C24.7759 44.7748 20.7694 44.7511 16.7628 44.7275C14.5831 45.0774 13.0498 45.7777 12.0472 46.3585C10.6377 47.1748 10.2881 47.7478 8.89641 48.2134C8.09855 48.4804 6.32653 49.0731 4.74325 48.2022C3.75997 47.6613 2.60745 46.4226 2.89947 45.2949C3.11516 44.462 4.06028 43.9157 4.84964 43.7349C7.28658 43.1755 9.6893 45.7684 10.3212 45.1288Z" fill="#DC2228"/>
<path d="M15.2238 20.3944C15.3192 20.5004 15.3254 20.6447 15.3233 20.7358C15.2893 22.2641 14.4863 23.1225 14.4863 23.1225C14.4437 23.1679 14.406 23.2084 14.3492 23.2604C13.9375 23.6377 13.2912 23.926 11.5018 23.8432C11.0748 23.8235 9.71422 23.7607 8.81411 23.4792C6.32345 22.7004 3.92322 19.174 3.42484 15.6404C2.60935 9.8585 7.00372 4.89793 10.4519 2.61281C11.5101 1.9118 14.4846 -0.000829585 18.5894 0.149327C20.2802 0.211132 24.227 0.355689 26.503 3.50878C28.5863 6.39515 27.856 9.84378 27.6974 10.5265C24.4624 19.3609 21.2271 28.1951 17.9921 37.0294C20.7794 37.0294 23.5664 37.0294 26.3536 37.0294C30.1113 27.1002 33.8689 17.171 37.6268 7.24154C39.095 7.24154 40.5634 7.24154 42.0316 7.24154C38.2988 17.1957 34.566 27.1498 30.833 37.1041C33.4212 37.129 36.0093 37.1539 38.5972 37.1788C43.4251 24.7858 48.2529 12.3929 53.0805 0C56.44 0.0248879 59.7996 0.0497758 63.1591 0.0746636C62.8604 1.36863 62.5618 2.6628 62.2631 3.95676C60.0981 3.93187 57.933 3.90698 55.768 3.88209C51.4379 14.9811 47.1078 26.0798 42.7778 37.1788C44.0966 37.1912 45.4157 37.2036 46.7345 37.2161C46.2617 38.2738 45.7888 39.3314 45.3161 40.3889C34.3416 40.364 23.3673 40.3391 12.3928 40.3142C16.25 30.4099 20.1072 20.5055 23.9644 10.601C24.0362 10.1864 24.1 9.59137 24.0391 8.88394C23.9109 7.39854 23.2897 6.08363 22.6953 5.37516C20.8607 3.18814 16.7382 3.74666 14.5578 4.4792C9.91456 6.03946 8.14981 10.3814 7.83891 11.1985C7.38305 12.3964 6.5603 14.5584 7.4656 16.8723C7.76757 17.6443 8.40947 19.2846 9.85463 19.784C11.2378 20.2618 14.7324 20.17 15.0711 20.295C15.1651 20.3295 15.2236 20.3944 15.2238 20.3944Z" fill="#2D282F"/>
<path d="M70.7554 37.2721C70.6005 37.2559 70.2705 37.198 69.9887 36.9423C69.5969 36.5868 69.4586 35.9955 69.6216 35.4196C71.4368 30.6463 73.2517 25.873 75.0669 21.0995C73.9098 21.0964 72.7525 21.0933 71.5954 21.0902C71.3341 21.7372 71.0728 22.3841 70.8114 23.0312C70.6994 23.1183 70.5875 23.2054 70.4755 23.2925C70.1612 22.7421 69.4679 21.7177 68.1984 21.0902C67.7376 20.8624 67.0073 20.5912 65.5107 20.5675C64.6123 20.5534 62.4821 20.5418 60.1356 21.5755C55.2777 23.7152 53.5104 28.5642 53.2672 29.265C52.6049 31.1729 51.4561 34.4823 53.2672 37.2532C55.1881 40.1926 59.0248 40.3613 59.6503 40.3886C63.2646 40.5475 65.7252 38.4405 66.2574 37.9623C66.5452 38.3777 67.0739 39.0457 67.8668 39.5902C68.1155 39.761 68.5599 40.0609 69.2159 40.2646C69.4154 40.3266 69.5868 40.3648 69.7102 40.3884C71.8876 40.3884 74.0651 40.3884 76.2426 40.3884C76.6053 39.3898 76.9679 38.391 77.3304 37.3923C75.1388 37.3525 72.9472 37.3123 70.7554 37.2721ZM68.7211 27.9959C67.9371 30.0739 67.1533 32.1518 66.3694 34.2297C65.9425 34.7173 65.2836 35.3685 64.3537 35.9468C63.7526 36.3205 60.3619 38.4287 57.9332 36.9174C56.4553 35.9976 56.1006 34.2148 55.9922 33.6699C55.4791 31.0905 56.9004 28.9763 57.6346 27.8841C57.9243 27.4534 60.0962 24.3192 63.719 23.6661C65.1739 23.4037 66.0226 23.6932 66.332 23.8154C66.7006 23.961 68.09 24.574 68.6091 26.0924C68.8882 26.9087 68.7945 27.6328 68.7211 27.9959Z" fill="#DC2228"/>
<path d="M84.0256 31.6543C82.8437 31.6668 81.6615 31.6792 80.4795 31.6917C80.1846 31.958 79.8018 32.3611 79.4716 32.9234C78.5814 34.4401 78.2274 36.8557 79.5462 38.6719C79.7916 39.0099 80.6465 40.0868 82.1219 40.4263C84.1055 40.8827 85.7925 39.68 86.788 38.9705C88.6218 37.6633 89.5808 36.0669 90.4088 34.5658C91.6476 32.3201 93.2337 29.1253 94.7388 25.0099C94.8002 26.3011 94.8187 27.6727 94.7762 29.116C94.6955 31.8632 94.4093 34.3661 94.0295 36.5815C95.3111 36.5939 96.5928 36.6064 97.8743 36.6188C100.998 32.6247 104.121 28.6307 107.244 24.6366C106.074 28.0831 104.904 31.5299 103.735 34.9764C103.593 35.5134 103.446 36.4071 103.698 37.4401C103.815 37.9203 104.175 39.3949 105.489 40.0905C105.919 40.3178 106.327 40.3966 106.609 40.4265C108.948 40.4389 111.288 40.4514 113.627 40.4638C114.137 39.4932 114.647 38.5228 115.157 37.5521C113.142 37.5646 111.126 37.577 109.11 37.5895C108.91 37.5391 108.604 37.4372 108.289 37.2161C108.113 37.0925 107.315 36.5326 107.318 35.6484C107.319 35.4875 107.346 35.1643 107.58 34.7898C109.312 30.2233 111.045 25.6568 112.778 21.0905C110.529 21.0905 108.28 21.0905 106.03 21.0905C103.386 24.7983 100.742 28.5062 98.0983 32.2143C98.302 28.5064 98.5058 24.7985 98.7095 21.0905C95.5879 21.0905 92.4664 21.0905 89.3448 21.0905C88.8533 22.2351 88.3617 23.3799 87.8704 24.5246C89.1768 24.537 90.4834 24.5495 91.7898 24.5619C90.1269 29.3277 88.4522 32.5291 87.3478 34.4165C86.889 35.2004 85.3945 37.6961 83.6896 37.7759C83.4959 37.785 82.9212 37.812 82.5326 37.4399C82.0657 36.9934 82.1246 36.2181 82.1593 35.7602C82.203 35.1847 82.366 34.7576 82.4579 34.5285C82.7167 33.8822 83.1842 32.878 84.0256 31.6543Z" fill="#DC2228"/>
<path d="M123.78 21.2024C121.304 27.6104 118.828 34.0184 116.352 40.4264C117.534 40.4264 118.716 40.4264 119.898 40.4264C121.602 36.4447 123.307 32.4631 125.012 28.4814C125.483 27.6533 126.214 26.6586 127.326 25.7938C127.904 25.3445 129.278 24.3032 131.246 24.114C131.955 24.0458 132.642 23.989 133.373 24.3754C133.437 24.4088 134.759 25.1357 134.941 26.6151C135.005 27.1288 134.908 27.5546 134.829 27.8095C133.896 30.3354 132.963 32.8613 132.029 35.387C131.933 35.7742 131.749 36.7428 132.179 37.8134C132.75 39.2372 133.997 39.822 134.344 39.9784C134.962 40.2567 135.522 40.331 135.874 40.3517C137.952 40.3766 140.03 40.4015 142.108 40.4264C142.551 39.3666 142.993 38.3066 143.436 37.2467C141.426 37.2132 139.417 37.1796 137.407 37.146C137.103 37.0841 136.673 36.9425 136.359 36.5816C135.82 35.9615 135.919 35.0359 136.135 34.0806C136.719 31.5037 137.61 31.1133 138.263 28.9292C138.588 27.8441 139.092 26.0704 138.375 24.1885C138.225 23.7953 137.727 22.5376 136.434 21.6501C135.044 20.6963 133.581 20.7507 132.477 20.7915C130.671 20.8587 129.347 21.4875 128.707 21.7995C127.858 22.2136 127.209 22.6753 126.766 23.0312C126.903 22.3966 127.04 21.7621 127.177 21.1275C126.044 21.1526 124.912 21.1775 123.78 21.2024Z" fill="#DC2228"/>
<path d="M150.432 21.0905C148.765 25.0721 147.098 29.0537 145.43 33.0354C145.297 33.6138 145.159 34.4673 145.206 35.4991C145.217 35.7449 145.253 36.5232 145.43 37.1041C146.024 39.0535 148.555 39.9204 149.051 40.0905C152.523 41.2797 155.841 39.1352 156.367 38.7841C154.302 43.7986 152.236 48.8129 150.171 53.8274C149.826 54.6754 149.09 56.1612 147.595 57.4855C146.905 58.0973 145.174 59.5879 142.556 59.7998C141.653 59.8728 138.437 60.1331 136.658 57.7468C135.077 55.627 135.816 52.9206 135.911 52.5954C136.877 49.3011 140.802 46.9255 145.728 46.7723C146.31 46.6227 146.596 46.5107 146.587 46.4363C146.556 46.1895 143.264 46.3575 136.714 46.9403C135.941 47.3403 134.202 48.3777 133.074 50.4677C131.66 53.0913 131.808 56.2672 133.112 58.6052C135.308 62.5439 140.428 63.2526 143.601 62.8233C150.128 61.94 153.036 55.6153 153.232 55.1711C157.898 43.8108 162.563 32.4507 167.23 21.0905C166.072 21.0905 164.915 21.0905 163.758 21.0905C161.929 25.4454 160.1 29.8004 158.271 34.1554C157.773 34.8856 156.751 36.1375 155.023 36.8804C154.051 37.2983 152.442 37.9904 150.917 37.2164C149.64 36.5676 149.185 35.2763 149.088 34.9767C148.625 33.5381 149.149 32.3358 149.275 32.065C150.868 28.4069 152.46 24.7488 154.053 21.0905C152.846 21.0905 151.639 21.0905 150.432 21.0905Z" fill="#DC2228"/>
<path d="M188.469 22.8821C186.762 20.5124 183.838 20.2452 183.281 20.1944C180.428 19.9339 178.356 21.349 177.794 21.7621C178.316 20.5053 178.839 19.2487 179.361 17.992C178.266 17.9796 177.171 17.9672 176.077 17.9547C169.992 32.8113 163.908 47.6679 157.823 62.5245C158.955 62.4997 160.088 62.4748 161.22 62.4499C164.691 54.2004 168.163 45.9509 171.634 37.7014C172.016 38.2821 172.765 39.2334 174.023 39.8291C174.512 40.0603 175.476 40.4268 177.682 40.2771C179.216 40.173 181.312 40.0307 183.43 38.896C189.269 35.7682 189.579 28.1534 189.589 27.7348C189.626 26.2843 189.646 24.5141 188.469 22.8821ZM185.595 31.2809C185.078 32.4903 184.026 34.9461 181.34 36.3203C180.449 36.7762 178.399 37.825 176.114 36.9923C174.19 36.2911 173.253 34.6761 172.978 34.1553C173.999 31.592 175.019 29.0288 176.039 26.4657C176.513 25.9178 177.4 25.0337 178.764 24.4127C179.741 23.9682 181.767 23.0466 183.776 24.023C185.715 24.9654 186.253 27.0019 186.305 27.2124C186.682 28.7424 186.158 29.9671 185.595 31.2809Z" fill="#DC2228"/>
<path d="M208.888 22.5462C207.219 20.9048 205.187 20.5991 204.409 20.4931C199.88 19.8761 196.367 23.0833 195.525 23.8526C195.051 24.285 190.937 28.1582 191.232 33.5951C191.291 34.6813 191.387 36.4601 192.65 37.9999C194.635 40.4192 197.981 40.3968 199.183 40.3889C203.304 40.3615 206.119 37.9223 206.91 37.2161C207.581 36.6165 211.114 33.4614 211.09 28.6306C211.086 27.6063 211.071 24.6936 208.888 22.5462ZM205.083 34.9793C204.546 35.5115 203.232 36.7822 201.124 37.2534C200.279 37.4424 198.811 37.7705 197.324 37.0118C195.945 36.3077 195.324 35.0637 195.151 34.678C193.654 31.3349 196.696 27.4615 197.018 27.0631C197.336 26.6684 200.103 23.3384 203.662 23.6663C204.102 23.7068 204.999 23.8003 205.865 24.413C207.708 25.7169 207.785 28.2208 207.806 28.8924C207.906 32.1784 205.642 34.4241 205.083 34.9793Z" fill="#DC2228"/>
<path d="M240.99 5.44987C241.488 4.42968 241.986 3.40928 242.483 2.38887C240.891 2.36398 239.298 2.3391 237.705 2.31421C236.697 2.36585 234.298 2.62427 231.882 4.29259C229.547 5.90532 228.458 7.96376 228.037 8.88399C226.208 13.1767 224.379 17.4695 222.55 21.7622C220.472 21.7622 218.394 21.7622 216.316 21.7622C215.881 22.8073 215.446 23.8526 215.01 24.8977C216.979 24.9039 218.948 24.9101 220.917 24.9163C215.614 37.4648 210.31 50.0133 205.006 62.5618C206.176 62.5493 207.345 62.5369 208.515 62.5244C213.977 49.9697 219.44 37.415 224.902 24.8603C227.496 24.8852 230.09 24.9101 232.685 24.935C233.251 23.8773 233.817 22.8198 234.383 21.7622C231.677 21.7622 228.971 21.7622 226.264 21.7622C227.956 17.8646 229.649 13.9669 231.341 10.0693C231.943 9.06795 233.313 7.13499 235.792 6.06585C236.498 5.7616 237.169 5.58095 237.763 5.47393C238.839 5.46605 239.914 5.45796 240.99 5.44987Z" fill="#DC2228"/>
<path d="M264.507 5.44987C265.005 4.42968 265.502 3.40928 266 2.38887C264.407 2.36398 262.814 2.3391 261.222 2.31421C260.214 2.36585 257.815 2.62427 255.399 4.29259C253.063 5.90532 251.974 7.96376 251.554 8.88399C249.725 13.1767 247.896 17.4695 246.067 21.7622C243.989 21.7622 241.911 21.7622 239.833 21.7622C239.397 22.8073 238.962 23.8526 238.527 24.8977C240.496 24.9039 242.465 24.9101 244.434 24.9163C239.13 37.4648 233.826 50.0133 228.523 62.5618C229.692 62.5493 230.862 62.5369 232.032 62.5244C237.494 49.9697 242.956 37.415 248.419 24.8603C251.013 24.8852 253.607 24.9101 256.201 24.935C256.768 23.8773 257.334 22.8198 257.9 21.7622C255.193 21.7622 252.487 21.7622 249.781 21.7622C251.473 17.8646 253.165 13.9669 254.858 10.0693C255.459 9.06795 256.83 7.13499 259.309 6.06585C260.015 5.7616 260.686 5.58095 261.28 5.47393C262.355 5.46605 263.431 5.45796 264.507 5.44987Z" fill="#DC2228"/>
</g>
<defs>
<clipPath id="clip0">
<rect width="266" height="62.9334" fill="white"/>
</clipPath>
</defs>
</svg>
