<svg width="259" height="116" viewBox="0 0 259 116" fill="none" xmlns="http://www.w3.org/2000/svg">
<path fill-rule="evenodd" clip-rule="evenodd" d="M14.3524 0C12.2367 10.4526 12.128 21.2947 14.3206 32.2176C23.263 76.7641 70.515 107.463 124.012 113.522C174.112 119.195 221.119 95.7866 244.153 58.3348C255.463 39.9444 260.246 19.57 258.035 0H256.526C258.747 19.2845 254.048 39.3827 242.875 57.549C220.163 94.4778 173.736 117.643 124.18 112.031C71.0048 106.009 24.5508 75.5578 15.7912 31.9224C13.6216 21.1139 13.7505 10.3673 15.8897 0H14.3524Z" fill="#2D282F"/>
<path fill-rule="evenodd" clip-rule="evenodd" d="M2.50356 0C0.501999 10.3936 0.450374 21.1568 2.62656 31.9981C11.726 77.3293 59.811 108.572 114.255 114.737C165.241 120.511 213.079 96.6882 236.519 58.5754C247.877 40.1071 252.766 19.6731 250.732 0H249.224C251.268 19.3881 246.461 39.546 235.241 57.7896C212.123 95.3794 164.865 118.959 114.424 113.247C60.3007 107.117 13.0138 76.123 4.09723 31.7029C1.94387 20.9754 2.01472 10.3079 4.0379 0H2.50356Z" fill="#2D282F"/>
</svg>
