<svg width="1920" height="456" viewBox="0 0 1920 456" fill="none" xmlns="http://www.w3.org/2000/svg">
<g clip-path="url(#clip0)">
<path d="M75.3973 326.306C76.9444 324.74 75.0171 322.511 77.1011 317.105C79.1651 311.75 82.2662 310.799 82.2123 308.33C82.0915 302.738 65.9934 298.871 63.8106 298.362C45.7822 294.158 31.1592 290.748 17.8068 300.15C7.5495 307.373 -1.1039 321.553 1.4502 336.698C4.28476 353.511 19.295 361.823 20.1074 362.256C44.2281 375.111 79.2559 355.186 82.6484 353.254C83.8861 352.551 88.2008 350.006 94.4807 347.433C100.404 345.005 105.475 343.619 108.793 342.832C141.763 343.003 174.733 343.173 207.703 343.343C218.692 340.191 229.682 337.04 240.672 333.887C251.093 336.944 261.515 340.001 271.936 343.059C295.763 343.069 319.589 343.078 343.415 343.088C350.733 340.456 358.052 337.824 365.37 335.192C378.669 338.25 391.967 341.307 405.265 344.365C876.211 344.365 1347.16 344.365 1818.11 344.365C1823.22 343.579 1828.6 342.575 1834.21 341.298C1843.89 339.094 1852.69 336.432 1860.53 333.631C1852.77 330.471 1843.34 327.425 1832.42 325.453C1827.55 324.573 1822.93 324.007 1818.62 323.664C1347.24 323.579 875.871 323.493 404.497 323.409C391.548 326.561 378.598 329.713 365.649 332.866C357.473 329.984 349.298 327.102 341.123 324.22C318.458 324.034 295.794 323.85 273.129 323.665C262.225 326.135 251.32 328.607 240.415 331.077C229.766 328.692 219.117 326.306 208.467 323.921C179.586 323.75 150.706 323.58 121.825 323.41C106.112 325.931 95.0596 330.981 87.8335 335.166C77.673 341.051 75.1528 345.182 65.1221 348.537C59.3711 350.462 46.5966 354.735 35.1845 348.457C28.0971 344.557 19.789 335.628 21.894 327.499C23.449 321.495 30.2609 317.558 35.951 316.253C53.5213 312.227 70.8421 330.917 75.3973 326.306Z" stroke="#2D282F" stroke-width="2" stroke-miterlimit="10"/>
<path d="M110.735 148.013C111.422 148.777 111.467 149.818 111.452 150.473C111.208 161.49 105.419 167.678 105.419 167.678C105.112 168.007 104.84 168.297 104.431 168.672C101.462 171.392 96.8042 173.469 83.906 172.874C80.8279 172.733 71.0217 172.28 64.5331 170.251C46.5796 164.638 29.2778 139.219 25.6857 113.746C19.8079 72.0687 51.4832 36.3113 76.3385 19.8389C83.9659 14.7846 105.408 0.997081 134.997 2.08C147.184 2.52615 175.634 3.56715 192.041 26.2966C207.059 47.1016 201.795 71.961 200.651 76.8825C177.332 140.563 154.011 204.244 130.692 267.925C150.783 267.925 170.874 267.925 190.965 267.925C218.052 196.351 245.138 124.778 272.225 53.2049C282.808 53.2049 293.392 53.2049 303.976 53.2049C277.068 124.958 250.161 196.711 223.254 268.464C241.91 268.644 260.565 268.822 279.221 269.002C314.022 179.669 348.822 90.3377 383.622 1.00507C407.839 1.18472 432.055 1.36338 456.272 1.54303C454.119 10.8711 451.967 20.1992 449.814 29.5264C434.208 29.3467 418.602 29.168 402.995 28.9884C371.783 108.993 340.57 188.997 309.357 269.002C318.865 269.092 328.372 269.182 337.88 269.271C334.471 276.895 331.063 284.519 327.655 292.143C248.548 291.963 169.44 291.784 90.3326 291.605C118.137 220.211 145.941 148.817 173.746 77.4225C174.263 74.4342 174.724 70.1454 174.284 65.0452C173.36 54.3388 168.882 44.8599 164.597 39.7527C151.373 23.988 121.656 28.0143 105.94 33.2951C72.4649 44.5376 59.7443 75.8355 57.5036 81.7252C54.2179 90.3607 48.2873 105.945 54.8128 122.625C56.9896 128.189 61.6157 140.013 72.0337 143.613C82.0036 147.057 107.194 146.395 109.637 147.295C110.313 147.544 110.735 148.013 110.735 148.013Z" stroke="#2D282F" stroke-width="2" stroke-miterlimit="10"/>
<path d="M511.027 269.673C509.91 269.557 507.531 269.14 505.499 267.295C502.675 264.733 501.679 260.47 502.853 256.319C515.937 221.911 529.021 187.503 542.104 153.096C533.763 153.074 525.421 153.051 517.08 153.029C515.197 157.693 513.313 162.358 511.43 167.022C510.622 167.649 509.815 168.277 509.009 168.905C506.744 164.938 501.746 157.554 492.595 153.029C489.273 151.388 484.01 149.431 473.222 149.263C466.747 149.161 451.391 149.077 434.476 156.528C399.458 171.951 386.72 206.904 384.967 211.957C380.193 225.709 371.913 249.565 384.967 269.539C398.814 290.727 426.47 291.943 430.978 292.142C457.031 293.287 474.768 278.099 478.604 274.652C480.679 277.646 484.49 282.461 490.206 286.387C491.998 287.618 495.201 289.781 499.93 291.249C501.368 291.695 502.603 291.971 503.493 292.142C519.189 292.142 534.885 292.142 550.581 292.142C553.195 284.942 555.809 277.743 558.423 270.544C542.624 270.253 526.825 269.963 511.027 269.673ZM496.362 202.808C490.712 217.786 485.061 232.764 479.41 247.744C476.333 251.258 471.584 255.953 464.88 260.121C460.548 262.815 436.106 278.011 418.599 267.117C407.945 260.486 405.388 247.635 404.607 243.708C400.908 225.114 411.153 209.873 416.446 202.002C418.534 198.895 434.191 176.303 460.305 171.597C470.793 169.706 476.91 171.792 479.14 172.673C481.797 173.722 491.813 178.142 495.553 189.086C497.567 194.971 496.892 200.19 496.362 202.808Z" stroke="#2D282F" stroke-width="2" stroke-miterlimit="10"/>
<path d="M606.682 229.177C598.162 229.267 589.641 229.357 581.12 229.447C578.994 231.366 576.235 234.272 573.855 238.326C567.438 249.259 564.887 266.67 574.393 279.763C576.163 282.2 582.324 289.962 592.96 292.41C607.258 295.701 619.418 287.031 626.594 281.916C639.813 272.493 646.726 260.985 652.694 250.165C661.623 233.977 673.057 210.948 683.906 181.282C684.349 190.59 684.481 200.477 684.176 210.88C683.594 230.682 681.532 248.724 678.794 264.695C688.032 264.785 697.27 264.875 706.509 264.965C729.022 236.174 751.533 207.383 774.046 178.592C765.615 203.437 757.184 228.281 748.754 253.125C747.732 256.996 746.668 263.438 748.484 270.884C749.329 274.345 751.923 284.974 761.399 289.989C764.497 291.628 767.44 292.195 769.472 292.41C786.334 292.5 803.196 292.59 820.058 292.68C823.735 285.684 827.413 278.687 831.09 271.692C816.56 271.782 802.029 271.871 787.499 271.961C786.054 271.599 783.848 270.863 781.58 269.27C780.31 268.379 774.563 264.343 774.584 257.969C774.588 256.808 774.787 254.48 776.467 251.78C788.956 218.863 801.447 185.946 813.936 153.03C797.724 153.03 781.512 153.03 765.301 153.03C746.241 179.758 727.182 206.486 708.123 233.215C709.591 206.487 711.06 179.759 712.529 153.03C690.028 153.03 667.526 153.03 645.026 153.03C641.482 161.282 637.94 169.534 634.397 177.785C643.815 177.875 653.232 177.965 662.65 178.054C650.663 212.408 638.591 235.484 630.63 249.09C627.324 254.74 616.549 272.731 604.261 273.307C602.865 273.373 598.722 273.566 595.92 270.885C592.554 267.666 592.979 262.078 593.229 258.777C593.543 254.629 594.719 251.549 595.382 249.898C597.248 245.238 600.619 237.997 606.682 229.177Z" stroke="#2D282F" stroke-width="2" stroke-miterlimit="10"/>
<path d="M893.245 153.837C875.397 200.028 857.548 246.219 839.7 292.41C848.221 292.41 856.742 292.41 865.262 292.41C877.55 263.709 889.838 235.008 902.125 206.306C905.524 200.337 910.791 193.166 918.807 186.933C922.972 183.696 932.88 176.188 947.06 174.825C952.172 174.334 957.129 173.923 962.398 176.708C962.855 176.95 972.383 182.189 973.699 192.852C974.156 196.555 973.464 199.624 972.892 201.463C966.165 219.67 959.439 237.877 952.711 256.085C952.015 258.875 950.691 265.857 953.787 273.574C957.905 283.837 966.891 288.053 969.393 289.18C973.851 291.187 977.89 291.721 980.425 291.871C995.404 292.051 1010.38 292.229 1025.36 292.409C1028.55 284.769 1031.74 277.129 1034.93 269.489C1020.45 269.247 1005.96 269.004 991.474 268.762C989.283 268.316 986.186 267.295 983.923 264.694C980.032 260.224 980.749 253.552 982.308 246.667C986.516 228.091 992.939 225.277 997.645 209.535C999.984 201.713 1003.62 188.928 998.453 175.363C997.374 172.528 993.782 163.461 984.461 157.066C974.441 150.19 963.896 150.581 955.938 150.877C942.915 151.361 933.371 155.894 928.761 158.142C922.638 161.127 917.963 164.456 914.769 167.021C915.756 162.446 916.742 157.872 917.73 153.298C909.569 153.478 901.407 153.657 893.245 153.837Z" stroke="#2D282F" stroke-width="2" stroke-miterlimit="10"/>
<path d="M1085.36 153.029C1073.35 181.73 1061.33 210.431 1049.31 239.133C1048.35 243.302 1047.35 249.455 1047.69 256.892C1047.78 258.664 1048.03 264.275 1049.31 268.462C1053.59 282.514 1071.83 288.762 1075.41 289.988C1100.44 298.56 1124.36 283.102 1128.15 280.57C1113.26 316.715 1098.37 352.861 1083.48 389.007C1080.99 395.119 1075.69 405.83 1064.91 415.376C1059.94 419.787 1047.46 430.531 1028.59 432.059C1022.08 432.586 998.902 434.462 986.075 417.261C974.68 401.981 980.006 382.472 980.693 380.129C987.653 356.382 1015.95 339.258 1051.46 338.153C1055.65 337.075 1057.72 336.268 1057.65 335.732C1057.42 333.952 1033.7 335.163 986.479 339.364C980.908 342.249 968.37 349.725 960.244 364.791C950.045 383.703 951.118 406.596 960.514 423.45C976.342 451.842 1013.25 456.951 1036.12 453.855C1083.18 447.489 1104.14 401.897 1105.54 398.695C1139.18 316.807 1172.81 234.919 1206.45 153.031C1198.11 153.031 1189.76 153.031 1181.42 153.031C1168.24 184.423 1155.05 215.815 1141.87 247.207C1138.28 252.47 1130.91 261.494 1118.46 266.849C1111.45 269.861 1099.85 274.85 1088.86 269.27C1079.65 264.594 1076.37 255.286 1075.68 253.126C1072.34 242.757 1076.11 234.09 1077.02 232.139C1088.5 205.769 1099.98 179.4 1111.46 153.031C1102.76 153.029 1094.06 153.029 1085.36 153.029Z" stroke="#2D282F" stroke-width="2" stroke-miterlimit="10"/>
<path d="M1359.55 165.945C1347.24 148.862 1326.16 146.938 1322.15 146.572C1301.58 144.693 1286.65 154.894 1282.59 157.873C1286.36 148.815 1290.13 139.756 1293.9 130.696C1286 130.606 1278.11 130.517 1270.22 130.427C1226.36 237.517 1182.5 344.609 1138.64 451.701C1146.8 451.521 1154.96 451.341 1163.13 451.163C1188.15 391.698 1213.17 332.232 1238.2 272.767C1240.95 276.953 1246.35 283.811 1255.42 288.104C1258.94 289.772 1265.89 292.412 1281.79 291.333C1292.85 290.583 1307.96 289.557 1323.23 281.377C1365.32 258.831 1367.55 203.941 1367.62 200.925C1367.89 190.47 1368.03 177.709 1359.55 165.945ZM1338.83 226.487C1335.1 235.204 1327.52 252.906 1308.16 262.812C1301.73 266.099 1286.95 273.658 1270.49 267.656C1256.62 262.601 1249.86 250.959 1247.88 247.206C1255.24 228.729 1262.59 210.253 1269.95 191.777C1273.36 187.828 1279.75 181.455 1289.59 176.978C1296.63 173.774 1311.23 167.13 1325.71 174.169C1339.69 180.962 1343.57 195.643 1343.94 197.159C1346.67 208.188 1342.89 217.016 1338.83 226.487Z" stroke="#2D282F" stroke-width="2" stroke-miterlimit="10"/>
<path d="M1506.73 163.523C1494.7 151.692 1480.05 149.488 1474.44 148.724C1441.8 144.276 1416.48 167.395 1410.4 172.94C1406.99 176.057 1377.33 203.977 1379.46 243.169C1379.89 250.998 1380.58 263.821 1389.69 274.92C1403.99 292.358 1428.11 292.198 1436.77 292.141C1466.48 291.943 1486.77 274.361 1492.47 269.269C1497.31 264.947 1522.78 242.204 1522.61 207.382C1522.57 199.997 1522.47 179.004 1506.73 163.523ZM1479.3 253.145C1475.44 256.981 1465.96 266.141 1450.77 269.538C1444.67 270.9 1434.09 273.265 1423.38 267.795C1413.43 262.72 1408.96 253.752 1407.71 250.972C1396.92 226.874 1418.85 198.952 1421.17 196.081C1423.46 193.236 1443.41 169.232 1469.06 171.595C1472.23 171.886 1478.69 172.56 1484.94 176.977C1498.23 186.377 1498.78 204.425 1498.93 209.266C1499.66 232.956 1483.34 249.144 1479.3 253.145Z" stroke="#2D282F" stroke-width="2" stroke-miterlimit="10"/>
<path d="M1738.14 40.2877C1741.72 32.9329 1745.31 25.578 1748.9 18.2241C1737.42 18.0444 1725.94 17.8658 1714.46 17.6861C1707.19 18.0584 1689.9 19.9218 1672.48 31.9467C1655.65 43.5714 1647.8 58.409 1644.77 65.0433C1631.58 95.9869 1618.4 126.931 1605.21 157.873C1590.23 157.873 1575.26 157.873 1560.28 157.873C1557.14 165.407 1554 172.941 1550.86 180.476C1565.05 180.521 1579.25 180.566 1593.44 180.611C1555.21 271.064 1516.98 361.518 1478.75 451.971C1487.18 451.881 1495.61 451.791 1504.04 451.702C1543.42 361.203 1582.79 270.705 1622.17 180.206C1640.87 180.386 1659.57 180.565 1678.27 180.744C1682.35 173.121 1686.43 165.497 1690.51 157.873C1671 157.873 1651.49 157.873 1631.99 157.873C1644.18 129.777 1656.38 101.682 1668.58 73.5859C1672.92 66.3677 1682.8 52.4334 1700.67 44.7282C1705.75 42.5344 1710.59 41.2319 1714.87 40.4614C1722.63 40.4035 1730.38 40.3456 1738.14 40.2877Z" stroke="#2D282F" stroke-width="2" stroke-miterlimit="10"/>
<path d="M1907.65 40.2877C1911.24 32.9329 1914.83 25.578 1918.41 18.2241C1906.93 18.0444 1895.45 17.8658 1883.97 17.6861C1876.71 18.0584 1859.41 19.9218 1842 31.9467C1825.16 43.5714 1817.31 58.409 1814.28 65.0433C1801.1 95.9869 1787.91 126.931 1774.73 157.873C1759.75 157.873 1744.77 157.873 1729.79 157.873C1726.65 165.407 1723.52 172.941 1720.38 180.476C1734.57 180.521 1748.76 180.566 1762.96 180.611C1724.73 271.064 1686.49 361.518 1648.26 451.971C1656.69 451.881 1665.13 451.791 1673.56 451.702C1712.93 361.203 1752.31 270.705 1791.68 180.206C1810.38 180.386 1829.08 180.565 1847.78 180.744C1851.86 173.121 1855.94 165.497 1860.02 157.873C1840.52 157.873 1821.01 157.873 1801.5 157.873C1813.7 129.777 1825.9 101.682 1838.09 73.5859C1842.43 66.3677 1852.31 52.4334 1870.18 44.7282C1875.27 42.5344 1880.11 41.2319 1884.39 40.4614C1892.14 40.4035 1899.9 40.3456 1907.65 40.2877Z" stroke="#2D282F" stroke-width="2" stroke-miterlimit="10"/>
</g>
<defs>
<clipPath id="clip0">
<rect width="1920" height="455.646" fill="white"/>
</clipPath>
</defs>
</svg>
